HIERARCHY
ROOT Hips
{
	OFFSET 0.000000 0.000000 0.000000
	CHANNELS 6 Xposition Yposition Zposition Xrotation Yrotation Zrotation
	JOINT LeftUpLeg_virtual
	{
		OFFSET 0.000000 0.000000 0.000000
		CHANNELS 3 Xrotation Yrotation Zrotation
		JOINT LeftUpLeg
		{
			OFFSET 13.026900 -6.336304 -1.092800
			CHANNELS 3 Xrotation Yrotation Zrotation
			JOINT LeftLeg
			{
				OFFSET 0.524474 -46.096886 9.782700
				CHANNELS 3 Xrotation Yrotation Zrotation
				JOINT LeftFoot
				{
					OFFSET -0.524474 -53.427422 -12.948200
					CHANNELS 3 Xrotation Yrotation Zrotation
					JOINT LeftToeBase
					{
						OFFSET 0.192200 -14.009700 16.364100
						CHANNELS 3 Xrotation Yrotation Zrotation
						JOINT LeftToe_End
						{
							OFFSET -1.784700 -0.561700 9.474800
							CHANNELS 3 Xrotation Yrotation Zrotation
							End Site
							{
								OFFSET 0 0 0
							}
						}
					}
				}
			}
		}
	}
	JOINT RightUpLeg_virtual
	{
		OFFSET 0.000000 0.000000 0.000000
		CHANNELS 3 Xrotation Yrotation Zrotation
		JOINT RightUpLeg
		{
			OFFSET -12.883000 -6.336304 -1.092800
			CHANNELS 3 Xrotation Yrotation Zrotation
			JOINT RightLeg
			{
				OFFSET -0.524587 -46.096825 9.782800
				CHANNELS 3 Xrotation Yrotation Zrotation
				JOINT RightFoot
				{
					OFFSET 0.524587 -53.427383 -12.948300
					CHANNELS 3 Xrotation Yrotation Zrotation
					JOINT RightToeBase
					{
						OFFSET -0.192200 -14.009700 16.364100
						CHANNELS 3 Xrotation Yrotation Zrotation
						JOINT RightToe_End
						{
							OFFSET 1.784700 -0.561700 9.474800
							CHANNELS 3 Xrotation Yrotation Zrotation
							End Site
							{
								OFFSET 0 0 0
							}
						}
					}
				}
			}
		}
	}
	JOINT Spine_virtual
	{
		OFFSET 0.000000 0.000000 0.000000
		CHANNELS 3 Xrotation Yrotation Zrotation
		JOINT Spine
		{
			OFFSET 0.072000 7.257294 -0.789700
			CHANNELS 3 Xrotation Yrotation Zrotation
			JOINT Spine1
			{
				OFFSET 0.000000 12.508769 -0.658067
				CHANNELS 3 Xrotation Yrotation Zrotation
				JOINT Spine1_split
				{
					OFFSET 0.000000 12.508769 -0.658067
					CHANNELS 3 Xrotation Yrotation Zrotation
					JOINT Spine2
					{
						OFFSET 0.000000 12.508769 -0.658067
						CHANNELS 3 Xrotation Yrotation Zrotation
						JOINT Neck_virtual
						{
							OFFSET 0.000000 0.000000 0.000000
							CHANNELS 3 Xrotation Yrotation Zrotation
							JOINT Neck
							{
								OFFSET 0.000000 14.033295 7.520400
								CHANNELS 3 Xrotation Yrotation Zrotation
								JOINT Head
								{
									OFFSET 0.000000 8.198502 5.703100
									CHANNELS 3 Xrotation Yrotation Zrotation
									JOINT HeadTop_End
									{
										OFFSET 0.000000 17.760803 13.332701
										CHANNELS 3 Xrotation Yrotation Zrotation
										End Site
										{
											OFFSET 0 0 0
										}
									}
								}
							}
						}
						JOINT LeftShoulder_virtual
						{
							OFFSET 0.000000 0.000000 0.000000
							CHANNELS 3 Xrotation Yrotation Zrotation
							JOINT LeftShoulder
							{
								OFFSET 6.292450 5.785301 -0.669000
								CHANNELS 3 Xrotation Yrotation Zrotation
								JOINT LeftShoulder_split
								{
									OFFSET 6.292450 5.785301 -0.669000
									CHANNELS 3 Xrotation Yrotation Zrotation
									JOINT LeftArm
									{
										OFFSET 13.907140 -6.093903 1.965100
										CHANNELS 3 Xrotation Yrotation Zrotation
										JOINT LeftForeArm
										{
											OFFSET 34.140198 0.000000 0.000000
											CHANNELS 3 Xrotation Yrotation Zrotation
											JOINT LeftHand
											{
												OFFSET 40.960209 0.000000 0.000000
												CHANNELS 3 Xrotation Yrotation Zrotation
												End Site
												{
													OFFSET 0 0 0
												}
											}
										}
									}
								}
							}
						}
						JOINT RightShoulder_virtual
						{
							OFFSET 0.000000 0.000000 0.000000
							CHANNELS 3 Xrotation Yrotation Zrotation
							JOINT RightShoulder
							{
								OFFSET -6.292450 5.785301 -0.669000
								CHANNELS 3 Xrotation Yrotation Zrotation
								JOINT RightShoulder_split
								{
									OFFSET -6.292450 5.785301 -0.669000
									CHANNELS 3 Xrotation Yrotation Zrotation
									JOINT RightArm
									{
										OFFSET -13.907140 -6.093903 1.965100
										CHANNELS 3 Xrotation Yrotation Zrotation
										JOINT RightForeArm
										{
											OFFSET -34.140198 0.000000 0.000000
											CHANNELS 3 Xrotation Yrotation Zrotation
											JOINT RightHand
											{
												OFFSET -40.960209 0.000000 0.000000
												CHANNELS 3 Xrotation Yrotation Zrotation
												End Site
												{
													OFFSET 0 0 0
												}
											}
										}
									}
								}
							}
						}
					}
				}
			}
		}
	}
}
MOTION
Frames: 10
Frame Time: 0.03333333
4.628036 91.157692 -4.793343 0.000000 0.000000 0.000000 4.123719 15.591662 -3.305839 13.820608 27.519177 16.800134 31.298813 10.380352 -6.264711 -21.828784 11.896909 -11.692192 -21.713520 -1.317062 0.064042 0.000000 0.000000 0.000000 3.363825 15.733047 -3.368023 -60.203698 17.285056 1.840053 59.764060 -5.295598 2.309525 2.154471 -4.704139 13.782687 4.046268 5.498999 -12.001022 0.000000 0.000000 0.000000 2.742023 16.573734 -1.958439 2.527855 -2.030218 -0.203344 4.384174 -6.577648 2.830183 0.019703 -0.458434 -0.239268 0.000000 0.000000 0.000000 4.632382 -3.493654 3.784084 -5.927617 10.634836 -9.945303 -15.087551 -50.472383 -42.967108 0.000000 0.000000 0.000000 3.346910 -6.048655 2.094780 0.329354 2.095466 -4.396033 1.589061 -1.515832 0.680262 -15.483993 11.229927 -58.421197 130.170005 -74.288792 123.921925 0.000000 0.000000 0.000000 3.344740 -5.777361 3.158476 -1.319542 -3.792944 15.238564 4.363770 5.619844 0.529811 -10.783172 -11.650535 61.755654 176.692459 59.718598 -169.922116 0.000000 0.000000 0.000000 
4.624495 93.667976 -4.757927 0.000000 0.000000 0.000000 4.786066 16.513553 -3.220901 11.466690 23.454929 18.024963 33.295038 11.396690 -6.834096 -14.251000 12.230874 -9.771011 -19.474029 -0.856088 -1.126410 0.000000 0.000000 0.000000 3.337961 17.064321 -3.202944 -57.620309 16.533771 0.676673 55.779443 -5.820735 2.265062 3.436565 -4.531734 15.219265 0.979024 5.830706 -11.562530 0.000000 0.000000 0.000000 2.515124 17.565322 -2.224498 2.116249 -1.935413 0.619590 4.458602 -6.587352 2.785584 -0.140729 0.041662 -0.149825 0.000000 0.000000 0.000000 4.376733 -3.600915 3.602004 -6.127846 10.677903 -9.892515 -13.579277 -49.957274 -42.470215 0.000000 0.000000 0.000000 3.498497 -6.008340 2.097922 0.351062 0.654374 -3.761798 3.019007 -3.863467 1.644461 -20.023224 9.431391 -57.779241 133.012169 -73.929708 127.083784 0.000000 0.000000 0.000000 3.712480 -5.711338 2.900833 -1.455737 -3.345525 14.233427 3.259250 6.394387 -0.841938 -14.252834 -9.884552 62.519672 177.469256 55.935681 -171.565773 0.000000 0.000000 0.000000 
4.631749 97.463364 -4.186176 0.000000 0.000000 0.000000 4.775884 19.523683 -3.141534 5.774651 19.011516 19.048441 36.443448 12.956994 -7.103713 -2.132868 11.748666 -8.562487 -17.283968 -0.013715 -4.227882 0.000000 0.000000 0.000000 3.987991 19.771309 -3.315264 -52.469991 15.763132 -0.093642 47.989285 -7.571156 2.237502 4.145805 -5.631840 13.891847 0.336728 5.960569 -9.837637 0.000000 0.000000 0.000000 2.378449 20.049826 -2.494889 1.600345 -1.847094 1.974100 4.683681 -6.784664 2.399387 -0.128270 0.433552 -0.021070 0.000000 0.000000 0.000000 4.297756 -3.719284 3.069462 -5.059901 10.542036 -9.240871 -9.784452 -48.512115 -39.546215 0.000000 0.000000 0.000000 3.924967 -6.013336 1.841710 0.380924 -1.506324 -3.717085 4.755910 -5.256776 1.595340 -26.719485 5.366394 -55.884512 136.551724 -74.747090 131.232536 0.000000 0.000000 0.000000 4.366178 -5.755170 2.367630 -1.514435 -3.266752 12.133421 3.067701 5.131462 -1.345623 -21.274467 -4.858898 62.313564 178.843026 55.450150 -174.001487 0.000000 0.000000 0.000000 
5.032478 101.464767 -3.720257 0.000000 0.000000 0.000000 4.252025 22.923126 -3.080806 -2.649359 14.968336 19.431123 41.010136 13.936191 -6.962794 12.184627 9.628146 -9.248955 -19.672229 1.070512 -7.304366 0.000000 0.000000 0.000000 4.486099 22.567556 -3.519073 -46.465384 14.707520 -0.375664 39.503950 -9.837546 2.160655 5.153309 -7.480179 10.908077 0.875160 5.997709 -7.497336 0.000000 0.000000 0.000000 2.333414 23.492501 -2.531686 1.033984 -1.757808 3.440663 5.066669 -7.083104 1.852954 -0.033904 0.625951 0.071492 0.000000 0.000000 0.000000 4.526772 -3.777067 2.424162 -2.992724 10.326558 -7.922129 -4.839275 -45.992260 -35.350672 0.000000 0.000000 0.000000 4.545720 -6.039747 1.508209 0.338296 -4.018252 -4.025568 6.018858 -5.196566 1.113025 -34.873710 -0.133128 -53.641454 138.163348 -76.986969 133.630643 0.000000 0.000000 0.000000 5.187315 -5.874351 1.769988 -1.550963 -3.533182 9.195280 3.527038 3.005056 -1.089220 -30.676111 1.945570 62.124088 -178.792755 58.852434 -177.402402 0.000000 0.000000 0.000000 
5.480716 104.837173 -2.906128 0.000000 0.000000 0.000000 2.950314 25.746065 -2.589264 -13.002792 11.073272 18.740752 47.783764 13.594645 -6.181843 25.231861 5.503798 -10.990994 -26.196905 2.277766 -8.941849 0.000000 0.000000 0.000000 4.181522 25.033866 -3.456994 -41.746547 13.162398 -0.245871 33.655815 -11.190316 2.128987 6.836469 -8.816848 8.838501 -0.103501 6.129763 -5.379921 0.000000 0.000000 0.000000 2.163260 27.524267 -2.118287 0.585833 -1.602476 4.554764 5.653769 -7.317228 1.370769 0.085228 0.519243 0.083848 0.000000 0.000000 0.000000 5.134590 -3.747769 1.921126 -0.585970 10.073046 -5.915468 -0.235530 -42.411582 -31.331044 0.000000 0.000000 0.000000 5.259925 -6.041926 1.283014 0.211583 -6.445757 -4.131874 6.735646 -4.051754 0.478822 -44.011755 -6.473465 -51.886481 133.017948 -80.824053 129.448791 0.000000 0.000000 0.000000 5.952431 -6.018597 1.325973 -1.676266 -4.092259 5.685976 3.712241 1.154789 -0.598059 -41.476156 8.668836 62.477407 -173.453924 66.393851 176.446708 0.000000 0.000000 0.000000 
5.777161 107.023468 -1.420040 0.000000 0.000000 0.000000 0.683389 28.224797 -1.520832 -24.721521 7.954692 16.715689 57.853260 13.027124 -5.484442 33.215606 1.329385 -11.459235 -30.229529 3.117689 -9.958798 0.000000 0.000000 0.000000 2.580722 26.784498 -2.788241 -39.107553 11.228206 0.186197 32.202006 -10.715880 2.242483 8.198939 -8.886002 8.510694 -2.788759 6.266564 -4.056358 0.000000 0.000000 0.000000 1.160905 31.130189 -1.297088 0.480860 -1.316863 4.986573 6.349494 -7.341543 1.098775 0.125080 0.241020 0.030227 0.000000 0.000000 0.000000 6.063731 -3.591105 1.710126 1.536350 9.774246 -3.319001 3.190474 -38.089486 -28.393245 0.000000 0.000000 0.000000 5.982351 -5.910248 1.316587 0.059099 -8.331860 -3.563886 7.185239 -2.767055 0.087485 -53.183582 -12.387203 -51.208442 100.344768 -84.985735 97.847118 0.000000 0.000000 0.000000 6.538059 -6.111585 1.183574 -1.978295 -4.820266 1.789614 3.461931 -0.170476 -0.170005 -52.456000 13.565390 63.426790 -155.776398 76.870617 158.446701 0.000000 0.000000 0.000000 
6.057153 107.657150 -0.410324 0.000000 0.000000 0.000000 -2.113814 30.243364 0.019289 -36.317933 5.811424 13.623208 69.389647 12.987844 -5.105585 34.881790 -0.957216 -10.291018 -29.126754 3.161194 -10.262879 0.000000 0.000000 0.000000 -0.178185 27.568032 -1.325838 -38.112090 9.033876 0.486761 34.917611 -8.375222 2.390162 7.609350 -7.623182 9.133702 -4.606605 6.312786 -3.730183 0.000000 0.000000 0.000000 -0.938016 33.331234 -0.150037 0.892295 -0.804615 4.639474 7.044094 -7.059997 1.112675 0.017588 0.022224 -0.039161 0.000000 0.000000 0.000000 7.153899 -3.278934 1.805636 3.065400 9.477393 -0.407375 5.601507 -33.442245 -26.600453 0.000000 0.000000 0.000000 6.653052 -5.570862 1.607795 0.053130 -9.437036 -1.922463 7.086262 -2.032281 0.155135 -62.080245 -16.975011 -51.682453 31.344684 -83.276262 29.920709 0.000000 0.000000 0.000000 6.882307 -6.059924 1.268838 -2.518774 -5.523446 -2.450885 3.147842 -0.690165 -0.199557 -62.804184 15.593402 64.412044 -79.657170 81.416449 82.540446 0.000000 0.000000 0.000000 
6.132941 106.687119 0.266048 0.000000 0.000000 0.000000 -5.055016 31.236719 1.721350 -46.167134 3.485359 9.989703 79.555769 13.455816 -5.066763 32.324437 -1.215490 -8.310592 -23.274834 2.617894 -10.033655 0.000000 0.000000 0.000000 -3.143659 27.478725 0.390415 -37.960071 6.633148 0.578664 40.291282 -5.080484 2.292519 4.285439 -5.770865 9.573131 -3.982051 6.288660 -4.064627 0.000000 0.000000 0.000000 -4.093013 33.745519 1.133365 1.774383 0.014148 3.646265 7.626349 -6.488538 1.370189 -0.093875 -0.075944 -0.112218 0.000000 0.000000 0.000000 8.195700 -2.798066 2.093520 3.990453 9.172012 2.585796 7.356222 -29.122793 -25.672963 0.000000 0.000000 0.000000 7.180812 -5.040081 2.005073 0.219945 -9.773505 0.921407 6.375796 -1.615568 0.511245 -70.148898 -19.831939 -53.171482 11.704952 -77.416834 11.180568 0.000000 0.000000 0.000000 7.063819 -5.783575 1.452432 -3.233391 -6.110604 -6.978238 2.750544 -0.462255 -0.496938 -71.683921 15.009628 64.786427 -39.962177 72.163312 43.624114 0.000000 0.000000 0.000000 
6.117837 104.380676 1.068516 0.000000 0.000000 0.000000 -7.794850 31.241354 3.150426 -54.825092 0.738495 6.938063 87.211475 13.746461 -5.152973 29.631324 -0.901249 -7.109373 -16.402793 2.091428 -9.306788 0.000000 0.000000 0.000000 -6.005463 27.010540 1.762202 -37.569080 4.178613 0.775305 46.760278 -1.875767 1.698098 -1.176118 -4.441728 8.991665 -2.133634 6.141079 -4.516439 0.000000 0.000000 0.000000 -7.939175 32.903180 2.307955 3.021465 1.046952 2.350021 8.030633 -5.730188 1.702765 -0.165029 -0.112127 -0.114649 0.000000 0.000000 0.000000 9.029232 -2.171420 2.404422 4.602051 8.924487 5.412240 9.154697 -25.628463 -25.112664 0.000000 0.000000 0.000000 7.492927 -4.341130 2.321978 0.444126 -9.593643 4.425805 5.213474 -1.887675 0.742598 -76.863425 -20.622730 -54.906347 6.743012 -72.633973 6.824026 0.000000 0.000000 0.000000 7.187230 -5.304411 1.610490 -3.948491 -6.499759 -11.463750 2.273849 -0.120332 -0.725425 -78.571826 12.748871 64.266302 -33.124085 64.273371 38.051131 0.000000 0.000000 0.000000 
6.230122 101.261536 1.606712 0.000000 0.000000 0.000000 -10.390011 30.064232 4.055865 -62.835664 -1.747661 4.669104 92.675401 13.986848 -5.281638 29.355894 -0.618589 -6.047142 -12.747819 1.828218 -8.082352 0.000000 0.000000 0.000000 -8.598742 26.773320 2.638324 -35.900004 1.732533 1.266772 52.811723 0.459235 0.688049 -7.784959 -4.429996 7.110420 -0.965189 5.885961 -4.755223 0.000000 0.000000 0.000000 -11.927662 31.230388 3.267235 4.334667 2.131887 1.154446 8.299900 -4.900116 1.941778 -0.204355 -0.191018 -0.047110 0.000000 0.000000 0.000000 9.636645 -1.448833 2.572490 5.391439 8.841040 7.660943 11.508540 -23.185805 -24.566983 0.000000 0.000000 0.000000 7.593576 -3.578596 2.440830 0.672818 -9.312351 8.021615 3.780515 -2.303396 0.217672 -82.546982 -20.035018 -56.243729 5.220119 -69.962775 5.525388 0.000000 0.000000 0.000000 7.272062 -4.675425 1.670169 -4.497585 -6.489500 -15.576614 2.073530 0.548204 -0.200536 -83.643323 10.323670 62.580181 -33.546174 60.612984 39.937366 0.000000 0.000000 0.000000 
